# xmcd
#
# Track frame offsets: 
#        150
#        12408
#        30008
#        44275
#        58598
#        73825
#        91333
#        95673
#        110155
#        122593
#        132360
#        144043
#        157630
#        168953
#        181368
#        198768
#        210873
#        230038
#        241730
#        251148
#        260388
#        271563
#        288490
#        297853
#        315673
#        323445
#
# Disc length: 4540 seconds
#
# Revision: 0
# Processed by: cddbd v1.5.2PL0 Copyright (c) Steve Scherf et al.
# Submitted via: ExactAudioCopy v0.95b3
#
DISCID=5d11ba1a
DTITLE=The Beatles  - Real Stereo Album - Disc 2  FLAC
DYEAR=1900
DGENRE=
TTITLE0=Back In The USSR
TTITLE1=Dear Prudunce
TTITLE2=Hey Bulldog
TTITLE3=ObLaDi-ObLaDa
TTITLE4=Ticket To Ride
TTITLE5=12 Bar Original
TTITLE6=The Walk
TTITLE7=What's The New Mary Jane
TTITLE8=Yes It Is
TTITLE9=I Call Your Name
TTITLE10=Magical Mystery Tour
TTITLE11=Penny Lane
TTITLE12=I'm Looking Through You
TTITLE13=Happiness Is A Warm Gun
TTITLE14=Don't Pass Me By
TTITLE15=I Should Have Known Better
TTITLE16=Revolution 1
TTITLE17=Help (James Bond Intro)
TTITLE18=Yesterday
TTITLE19=Norwegian Wood
TTITLE20=That Means A Lot
TTITLE21=All You Need Is Love
TTITLE22=Every Little Thing
TTITLE23=Let It Be
TTITLE24=I Me Mine
TTITLE25=Long And Winding Road
EXTD=
EXTT0=
EXTT1=
EXTT2=
EXTT3=
EXTT4=
EXTT5=
EXTT6=
EXTT7=
EXTT8=
EXTT9=
EXTT10=
EXTT11=
EXTT12=
EXTT13=
EXTT14=
EXTT15=
EXTT16=
EXTT17=
EXTT18=
EXTT19=
EXTT20=
EXTT21=
EXTT22=
EXTT23=
EXTT24=
EXTT25=
PLAYORDER=
